<svg width="84" height="76" viewBox="0 0 84 76" fill="none" xmlns="http://www.w3.org/2000/svg">
<path d="M72.264 70.2C72.936 70.424 73.464 70.744 73.848 71.16C74.232 71.576 74.472 72.008 74.568 72.456C74.664 72.904 74.616 73.336 74.424 73.752C74.264 74.168 73.976 74.488 73.56 74.712C73.144 74.968 72.616 75.064 71.976 75C71.368 74.968 70.664 74.712 69.864 74.232C67.016 72.568 63.768 71.08 60.12 69.768C56.472 68.456 52.616 67.352 48.552 66.456C44.52 65.592 40.36 64.984 36.072 64.632C31.784 64.28 27.608 64.232 23.544 64.488C23.544 65 23.432 65.416 23.208 65.736C23.016 66.056 22.776 66.248 22.488 66.312C22.2 66.376 21.896 66.296 21.576 66.072C21.256 65.88 20.984 65.512 20.76 64.968C20.728 64.904 20.712 64.856 20.712 64.824C20.712 64.792 20.696 64.76 20.664 64.728C17.368 65.08 14.216 65.656 11.208 66.456C8.232 67.288 5.496 68.392 3 69.768C2.456 70.056 1.944 70.152 1.464 70.056C1.016 69.96 0.68 69.752 0.456 69.432C0.232 69.144 0.168 68.808 0.264 68.424C0.36 68.04 0.712 67.704 1.32 67.416C4.52 65.912 7.736 64.744 10.968 63.912C14.232 63.112 17.496 62.536 20.76 62.184C20.92 61.096 21.192 59.752 21.576 58.152C21.992 56.584 22.488 54.84 23.064 52.92C23.672 51 24.36 48.952 25.128 46.776C25.896 44.568 26.744 42.296 27.672 39.96C25.208 41.368 22.84 42.632 20.568 43.752C18.296 44.872 16.264 45.832 14.472 46.632C12.712 47.432 11.24 48.072 10.056 48.552C8.872 49 8.12 49.272 7.8 49.368C7.032 49.56 6.424 49.528 5.976 49.272C5.56 48.984 5.288 48.632 5.16 48.216C5.032 47.768 5.048 47.336 5.208 46.92C5.368 46.504 5.672 46.264 6.12 46.2C6.536 46.168 7.448 45.912 8.856 45.432C10.296 44.92 12.072 44.232 14.184 43.368C16.296 42.472 18.648 41.416 21.24 40.2C23.864 38.952 26.552 37.56 29.304 36.024C30.488 33.144 31.736 30.28 33.048 27.432C34.392 24.552 35.768 21.8 37.176 19.176C38.616 16.52 40.056 14.056 41.496 11.784C42.968 9.48 44.408 7.496 45.816 5.832C47.256 4.136 48.648 2.808 49.992 1.848C51.368 0.887999 52.68 0.407999 53.928 0.407999C55.368 0.407999 56.424 0.711998 57.096 1.32C57.8 1.928 58.264 2.648 58.488 3.48C58.712 4.312 58.792 5.144 58.728 5.976C58.664 6.808 58.616 7.448 58.584 7.896C58.328 10.776 57.368 13.592 55.704 16.344C54.04 19.096 51.944 21.752 49.416 24.312C46.888 26.84 44.056 29.24 40.92 31.512C37.816 33.752 34.664 35.832 31.464 37.752C30.504 40.248 29.624 42.696 28.824 45.096C28.024 47.496 27.288 49.752 26.616 51.864C25.976 53.976 25.416 55.896 24.936 57.624C24.488 59.352 24.152 60.792 23.928 61.944C28.536 61.656 33.016 61.752 37.368 62.232C41.72 62.744 45.784 63.4 49.56 64.2C53.336 65 56.76 65.832 59.832 66.696C62.904 67.592 65.464 68.28 67.512 68.76C68.088 68.888 68.664 69.032 69.24 69.192C69.848 69.384 70.392 69.56 70.872 69.72C71.352 69.88 71.72 70.008 71.976 70.104C72.264 70.2 72.36 70.232 72.264 70.2ZM53.928 3.72C52.072 4.136 50.216 5.272 48.36 7.128C46.504 8.952 44.68 11.256 42.888 14.04C41.096 16.792 39.352 19.88 37.656 23.304C35.992 26.728 34.44 30.232 33 33.816C35.784 32.12 38.472 30.296 41.064 28.344C43.688 26.392 46.04 24.328 48.12 22.152C50.2 19.976 51.896 17.704 53.208 15.336C54.552 12.968 55.352 10.536 55.608 8.04C55.672 7.46399 55.672 6.904 55.608 6.36C55.576 5.816 55.48 5.336 55.32 4.92C55.192 4.504 55 4.184 54.744 3.96C54.52 3.736 54.248 3.656 53.928 3.72ZM75.0165 4.68C76.5525 4.584 77.8805 4.824 79.0005 5.4C80.1525 5.944 81.0805 6.664 81.7845 7.56C82.4885 8.456 82.9685 9.448 83.2245 10.536C83.5125 11.592 83.5925 12.6 83.4645 13.56C83.3045 14.52 82.9845 15.592 82.5045 16.776C82.0565 17.928 81.4965 19.064 80.8245 20.184C80.1845 21.272 79.4645 22.28 78.6645 23.208C77.8645 24.104 77.0645 24.744 76.2645 25.128C75.4645 25.512 74.8085 25.592 74.2965 25.368C73.7845 25.112 73.4645 24.728 73.3365 24.216C73.2405 23.704 73.3685 23.16 73.7205 22.584C74.0725 21.976 74.6965 21.512 75.5925 21.192C75.8805 21.096 76.2645 20.856 76.7445 20.472C77.2245 20.088 77.7205 19.56 78.2325 18.888C78.7445 18.184 79.2405 17.336 79.7205 16.344C80.2005 15.352 80.5685 14.184 80.8245 12.84C80.9205 12.328 80.8885 11.72 80.7285 11.016C80.6005 10.312 80.2965 9.672 79.8165 9.096C79.3685 8.488 78.7445 8.024 77.9445 7.704C77.1445 7.352 76.1525 7.256 74.9685 7.416C73.1125 7.672 71.2245 8.36 69.3045 9.48C67.3845 10.568 65.4965 11.976 63.6405 13.704C61.7845 15.4 59.9765 17.352 58.2165 19.56C56.4565 21.736 54.8085 24.056 53.2725 26.52C51.7365 28.952 50.3285 31.464 49.0485 34.056C47.8005 36.648 46.7285 39.192 45.8325 41.688C44.9685 44.184 44.3125 46.584 43.8645 48.888C43.4165 51.16 43.2245 53.208 43.2885 55.032C43.3845 56.856 43.7685 58.392 44.4405 59.64C45.1445 60.92 46.2005 61.8 47.6085 62.28C49.4325 62.888 51.2565 63.112 53.0805 62.952C54.9365 62.824 56.7605 62.424 58.5525 61.752C60.3445 61.08 62.0885 60.2 63.7845 59.112C65.5125 58.024 67.1445 56.856 68.6805 55.608C70.2485 54.328 71.7205 53.016 73.0965 51.672C74.4725 50.328 75.7045 49.064 76.7925 47.88C77.9125 46.696 78.8725 45.656 79.6725 44.76C80.4725 43.864 81.0965 43.208 81.5445 42.792C81.8645 42.472 82.1845 42.312 82.5045 42.312C82.8245 42.312 83.0645 42.424 83.2245 42.648C83.3845 42.84 83.4165 43.112 83.3205 43.464C83.2565 43.784 83.0005 44.12 82.5525 44.472C82.3285 44.664 81.8325 45.208 81.0645 46.104C80.3285 46.968 79.3685 48.056 78.1845 49.368C77.0325 50.648 75.6885 52.056 74.1525 53.592C72.6485 55.096 71.0005 56.568 69.2085 58.008C67.4165 59.48 65.5285 60.824 63.5445 62.04C61.5605 63.256 59.5285 64.2 57.4485 64.872C55.3685 65.576 53.2565 65.912 51.1125 65.88C49.0005 65.88 46.9205 65.368 44.8725 64.344C43.3045 63.576 42.1365 62.392 41.3685 60.792C40.6325 59.224 40.2165 57.384 40.1205 55.272C40.0245 53.128 40.2325 50.792 40.7445 48.264C41.2885 45.704 42.0565 43.064 43.0485 40.344C44.0405 37.624 45.2405 34.872 46.6485 32.088C48.0565 29.272 49.6085 26.568 51.3045 23.976C53.0325 21.384 54.8565 18.952 56.7765 16.68C58.7285 14.376 60.7125 12.36 62.7285 10.632C64.7765 8.904 66.8405 7.512 68.9205 6.456C71.0005 5.4 73.0325 4.808 75.0165 4.68Z" fill="white"/>
</svg>
